<?xml version="1.0" encoding="utf-8"?>
<!-- Generator: Adobe Illustrator 24.0.0, SVG Export Plug-In . SVG Version: 6.00 Build 0)  -->
<svg version="1.1" id="Layer_1" xmlns="http://www.w3.org/2000/svg" xmlns:xlink="http://www.w3.org/1999/xlink" x="0px" y="0px"
	 viewBox="0 0 148.4 77.5" style="enable-background:new 0 0 148.4 77.5;" xml:space="preserve">
<style type="text/css">
	.st0{fill:#FFFFFF;}
</style>
<title>Asset 5</title>
<g id="Layer_2_1_">
	<g id="Layer_1-2">
		<path class="st0" d="M41.6,38.7c0.2-1.4,0.7-2.7,0.9-4c0.1-1.1,0.5-2.2,1.2-3.1c0.9-1.2,1.9-2.3,2.9-3.4c0.1-0.1,0.4,0,0.5,0.1
			s0.2,0.3,0.3,0.4c1,0.8,1.7,1.8,2,3c0.2,0.9,0.5,1,1.5,1c0.8,0,1.4-0.6,1.6-1.3c0.2-0.6,0.5-1.3,0.8-1.9s0.4-1.1,0.7-1.6
			s0-1.1,0.2-1.5c0.3-0.7,0.5-1.5,0.5-2.3c0.2-1.5,0.3-3,0.3-4.5c0.1-1.5,0.1-3,0.2-4.5c0-0.2,0-0.3-0.1-0.4
			c-0.4-0.4-0.9-0.5-1.4-0.4c-0.6,0.3-1,0.9-0.9,1.6c0.1,0.4,0.1,0.9,0.2,1.3c0,0.3-0.1,0.6-0.2,0.9c-0.1,0.4-0.2,0.8-0.2,1.3
			c0,0.7,0,1.4,0,2.1c-0.1,1-0.2,2-0.3,3c0,0.9-0.2,1.8-0.3,2.7c-0.2,0.7-0.5,1.3-0.9,1.9L50,28c-0.1-0.1-0.3-0.2-0.3-0.3
			c-0.3-0.9-1-1.6-1.8-1.9c-0.6-0.2-1.2-0.3-1.8-0.2c-0.3,0-0.7,0.4-1,0.7c-0.8,0.8-1.6,1.6-2.4,2.4c-0.7,0.9-1.3,1.8-1.9,2.8
			c-0.4,0.7-0.7,1.5-0.9,2.3c-0.3,1-0.5,2-0.7,2.9c-0.3,1.9-0.8,3.7-1.6,5.5c-0.3,0.6-0.5,1.3-0.8,1.9c-0.4,0.9-0.8,1.9-1.3,2.8
			c-1,1.9-2,3.8-3.1,5.7c-0.4,0.8-0.7,1.7-1.6,2c-0.3,0.1-0.5,0.5-0.7,0.7c-0.6,0.7-1.2,1.3-1.8,2c-0.4,0.4-0.8,0.8-1.2,1.2
			c-0.3,0.3-0.7,0.5-1.1,0.6c-0.1,0-0.4-0.3-0.5-0.5s-0.3-0.3-0.4-0.4c-0.6-0.5-0.9-1.2-0.9-2c0-0.1-0.1-0.2-0.1-0.3
			c-0.1-0.4-0.2-0.9-0.4-1.3s-0.3-0.9-0.4-1.3c-0.1-0.3-0.1-0.5-0.1-0.8h0.1c0.1-0.2,0.2-0.4,0.4-0.6c0.3-0.2,0.5-0.5,0.8-0.7
			c0.1-0.1,0.2-0.2,0.3-0.2s0.3-0.3,0.4-0.5c0.4-0.5,0.9-0.8,1.3-1.3s0.9-1.3,1.4-1.9c1-1.3,1.9-2.6,2.7-4c0.8-1.3,1.5-2.7,2.1-4.1
			c0.3-0.7,0.4-1.4,0.7-2.1c0.5-1.1,1-2.2,1.4-3.3c0.4-1.5,0.6-3,0.9-4.4c0.1-0.7,0.2-1.5,0.4-2.2c0.3-1.2,0.7-2.4,0.9-3.7
			c0.2-0.8,0.1-1.7,0.2-2.5s0.4-1.9,0.5-2.8c0.1-1.5,0.7-3.6,0.7-5.1c0-0.3,0.2-0.6,0.1-1c-0.1-1.3-0.2-2.5-0.4-3.8
			c0-0.3-0.2-0.6-0.4-0.9c-0.8-0.6-1.3-1.4-2.3-1.8c-0.8-0.4-1.7-0.4-2.5-0.2c-1,0.5-1.9,1-2.8,1.7c-0.1,0-0.1,0.2-0.2,0.2l-1.7,2.3
			C28.1,9.8,28.1,9.9,28,10c-0.4,0.8-0.7,1.6-1,2.4s-0.7,1.5-1,2.2c-0.3,0.8-0.5,1.5-0.7,2.3c-0.3,1.6-1.3,3.9-1.7,5.4
			c0,0.2-0.1,0.4-0.2,0.6c-0.2,0.7-0.4,1.4-0.6,2.2c-0.2,1-0.4,2-0.6,3.1c-0.1,0.7-0.3,1.5-0.4,2.2s-0.2,1.6-0.4,2.4
			c-0.1,1-0.3,2-0.4,3s-0.2,1.9-0.3,2.8c-0.1,1.1-0.4,2.3-0.4,3.4c-0.2,2-0.2,3.9,0.1,5.9c0.2,0.7,0,1.5,0.1,2.2
			c0.2,1.1-0.3,2.1-1.3,2.6c-0.2,0-0.4,0-0.6-0.2c-0.3-0.7-0.6-1.4-0.8-2.1c-0.1,0-0.1-0.1-0.1-0.2c-0.1-0.1-0.2-0.2-0.2-0.3
			c-0.3-0.5-0.6-1.1-0.9-1.6c-0.2-0.5-0.5-1-0.9-1.5c-0.3-0.5-0.7-1-1.2-1.4c0,0-0.1,0.1-0.1,0.1l0,0l0,0c-0.1-0.1-0.3-0.2-0.4-0.2
			h-0.1H14h-0.1h-0.1c-0.1-0.1-0.2-0.1-0.4-0.1c-0.6,0.1-1.1,0.5-1.3,1c-0.1,0.2-0.4,0.3-0.6,0.4c-0.2,0.1-0.4,0.2-0.5,0.4
			c-0.3,0.2-0.5,0.4-0.7,0.7c-0.1,0.1-0.3,0.3-0.4,0.5c-0.5,0.8-0.9,1.6-1.4,2.4c-0.1,0.2-0.2,0.3-0.2,0.5c-0.3,1-0.6,2-1,2.9
			c-0.8,1.7-1.6,3.5-2.4,5.2c-0.4,0.7-1,1.3-1.8,1.4c-0.9,0.2-1.8,0.3-2.7,0.4c-0.1,0-0.3,0.2-0.3,0.2s0.1,0.5,0.2,0.5
			c0.6,0,1.1,0.7,1.8,0.4c0,0,0.1,0,0.2,0.1c1.1,0.7,2.4,0.6,3.4-0.2c0.6-0.4,1.1-0.9,1.5-1.5c0.7-1.2,1.2-2.5,1.8-3.7
			c0.6-1.5,1.2-3,1.8-4.5c0.7-1.6,1.7-3.2,2.8-4.5l0.1,0.4c0.2,0.7,0.4,1.5,0.7,2.2c0.8,1.4,1.8,2.6,2.5,4c0.5,1.1,1.7,1.5,2.8,1.1
			c0.2-0.1,0.3-0.2,0.5-0.3c0.2-0.1,0.4-0.2,0.6-0.1c0.1,0,0.2,0.3,0.2,0.5c0.1,0.5,0.2,1.1,0.4,1.6c0.5,1,1,1.9,1.6,2.8
			c0.1,0.2,0.2,0.3,0.4,0.4l0.5,0.5c0.6,0.5,1,1.5,2.1,1.1s2.7-0.3,3.5-1.8l0,0c0.7-0.8,1.4-1.5,2.1-2.3c0.7-0.7,1.5-1.5,2.3-2.2
			c0.1-0.1,0.3-0.2,0.3-0.4c0.5-1,1.1-2.1,1.6-3.2c0.3-0.9,0.7-1.7,1.2-2.5c0.9-1.2,1.7-2.5,2.3-3.9c0.2-0.4,0.2-0.9,0.4-1.3
			c0.3-0.8,0.8-1.7,1.1-2.5C41.1,40.7,41.4,39.7,41.6,38.7z M24.4,41.2c-0.3-0.5,0-1.2,0-1.8c0-0.1,0.1-0.1,0.1-0.2
			c-0.2-0.7,0.2-1.3,0.2-1.9c0-1.8,0.2-3.6,0.8-5.3c0.1-0.6,0.2-1.3,0.2-1.9c0.1-0.8,0.2-1.6,0.4-2.4c0.2-1.5,0.4-3,0.6-4.5
			c0.1-0.5,0.1-1,0.2-1.6c0-0.1,0.3-0.3,0.3-0.4c0.3-1.1,0.5-2.3,0.8-3.5c0.1-0.5,0.9-1.7,1-2.2c0.3-0.8,0.5-1.5,0.8-2.3
			c0.3-0.8,0.7-1.5,1.2-2.1c0.1-0.2,0.3-0.4,0.4-0.6c0.1-0.2,0.1-0.6,0.6-0.5c0.1,0,0.2-0.2,0.3-0.4c0.2-0.4,0.4-0.8,0.7-1.2
			c0.4-0.3,0.9-0.6,1.4-0.9c0.4-0.2,1-0.1,1.2,0.4c0,0,0,0,0,0.1c0.4,0.8,0.8,1.6,1.2,2.4c0.1,0.2,0.1,0.5,0,0.7
			c0,0.3-0.1,0.6-0.2,0.9c-0.2,1.3-0.3,2.7-0.5,4c0,0.4-0.7,1.5-0.7,1.9c0.1,1.1,0,2.2-0.3,3.3c0,0.1,0,0.3,0,0.4
			c0.2,1.2-0.3,2.2-0.7,3.3c-0.2,0.7-0.4,1.3-0.5,2c-0.1,0.6-0.2,1.2-0.3,1.8c-0.1,0.2-0.1,0.4-0.1,0.5c0,1.3-0.3,2.5-0.9,3.7
			c-0.3,0.7-0.3,1.4-0.5,2.1c-0.1,0.3-0.2,0.5-0.4,0.8c-0.7,1.4-1.4,2.8-2.1,4.2c-0.6,1.1-1.2,2.2-1.9,3.3c-0.6,0.9-1.2,1.7-1.9,2.5
			c-0.4,0.5-0.9,0.9-1.4,1.3h-0.2c0-0.6,0-1.2-0.1-1.8c0-0.7,0.1-1.5,0.3-2.2C24.8,42.6,24.7,41.8,24.4,41.2z"/>
		<path class="st0" d="M80.8,30.3c0.5-0.4,1-1,1.6-1.6c0.4,0.1,0.8-0.4,1.1-0.9s0.6-0.6,0.8-1c0.2-0.3,0.4-0.5,0.6-0.9
			c0.3-0.6,0.5-1.2,0.8-1.8c0.3-0.6,0.6-1.2,0.8-1.9c0.4-1.1,0.6-2.3,1-3.4c0-0.1,0.1-0.3,0.2-0.4c0.1-0.2,0.2-0.4,0.2-0.6
			c0.1-1,0.3-2,0.4-3c0-0.1,0.1-0.1,0.1-0.2c0-0.3,0-0.5,0.1-0.8c0.1-0.3,0.2-0.6,0.2-0.9c0-0.2,0-0.5,0-0.7c0,0,0.1-0.1,0.1-0.2
			c0.1-0.4,0.3-0.8,0.1-1.1c-0.2-0.3-0.5-0.5-0.9-0.5c-0.4,0.1-0.8,0.4-1,0.8c-0.3,0.9-0.4,1.8-0.7,2.6c-0.2,0.5-0.3,1-0.3,1.4
			c-0.3,1.3-0.6,2.7-0.9,4c-0.1,0.4-0.3,0.8-0.4,1.2s-0.3,0.9-0.5,1.3s-0.4,0.9-0.6,1.4c-0.3,0.5-0.6,1-0.9,1.4
			c-0.7,1-1.4,1.9-2.1,2.8c-0.1,0.1-0.3,0.1-0.4,0.2c0-0.4-0.1-0.7-0.1-1.1s0-0.5,0.1-0.6c0.3-0.4,0.1-0.7,0.1-1.1
			c0-1,0.1-1.9,0.3-2.8c0.1-0.7,0-1.4-0.3-2c-0.1-0.3-0.2-0.5-0.3-0.8s-0.1-0.7-0.3-0.7s-0.2,0-0.3,0c-0.3-0.1-0.6-0.1-0.9,0
			c-0.3,0.1-0.6,0.3-0.8,0.6l-0.2,0.2h-0.1c-0.2,0.1-0.4,0.2-0.5,0.3c0,0-0.1,0.1-0.1,0.1l-0.2,0.1c-0.2,0-0.3,0.2-0.3,0.4
			c-0.6,0.5-1.1,1.1-1.6,1.6c-0.1,0.2-0.2,0.4-0.3,0.5c-0.5,0.7-1.1,1.4-1.6,2.1s-1.1,1.6-1.7,2.4s-1,1.4-1.6,2.1
			c-0.3,0.5-0.6,0.9-1,1.3c-0.8,0.7-1.7,1.3-2.6,1.9c-0.1,0-0.5-0.1-0.5-0.2c-0.2-0.7-0.2-1.5-0.3-2.2c0-0.8,0.4-1.6,0-2.4
			c0.2-0.5,0.5-1,0.7-1.5c0.2-0.4,0.3-0.8,0.3-1.2c0.2-0.3,0.3-0.7,0.4-1.1c0.1-1.1,0.7-2.1,1.5-2.8c0.5-0.5,0.9-1.1,1.2-1.7
			c0.5-0.9,0.6-2,1.7-2.5c0.1-0.1,0.2-0.2,0.3-0.4c0.3-0.7,0.7-1.4,1.1-2.1s0.3-1.4-0.3-1.7c-0.4-0.2-0.8-0.3-1.2-0.3
			c-0.2,0-0.4,0.2-0.6,0.3s-0.2,0.1-0.3,0.1c-1,0.4-2.1,0.3-3,1c-0.5,0.5-1.2,1-1.8,1.3c-0.7,0.4-1.2,0.9-1.7,1.5
			c-0.3,0.3-0.7,0.5-1.1,0.7c-0.3,0.1-0.5,0.3-0.7,0.5l0,0c-0.1,0.1-0.3,0.2-0.4,0.3l0,0c-0.1,0.1-0.2,0.2-0.2,0.3
			c-0.2,0.2-0.4,0.3-0.7,0.5c-0.1,0.2-0.2,0.4-0.3,0.5s-0.2,0.3-0.2,0.5c-0.1,0.2-0.1,0.3-0.1,0.5c0,0.2,0,0.5-0.1,0.7
			c0,0.4,0.1,0.8,0.2,1.2c0.1,0.6,0.6,1,1.2,1.1c0.2,0,0.4,0.2,0.7,0.4c-0.7,0.5-1.4,0.9-2,1.4c-0.8,0.6-1.5,1.2-2.2,1.9
			c-0.3,0.3-0.6,0.7-0.8,1.1c-0.3,0.4-0.8,0.4-1.1,0.9c-0.4,0.9-1,1.7-1.6,2.5c-0.4,0.4-0.5,1-0.5,1.6c0,0.5,0,1,0,1.5
			s-0.5,1.3,0.1,1.9c0,0,0,0.1,0,0.2c-0.2,0.4-0.3,0.7,0.1,1s0.5,0.7,0.8,0.8c1.2,0.4,2.2,1.4,3.6,1.5c1.1,0,2.2,0.4,3.3,0.4
			c0.8-0.1,1.5-0.2,2.3-0.2c1.4,0.3,2.9-0.1,4.2,0.8c0.9,0.6,1.9,1.1,2.8,1.7c0.4,0.3,0.6,0.8,1,1.1c0.4,0.3,0.6,0.8,0.5,1.3
			c0,1.5,0,3.1,0,4.6c0,0.6-0.4,1.2-0.3,1.8c0,0.9-0.3,1.8-0.8,2.5c-0.7,1.4-1.6,2.7-2.4,4.1c-0.3,0.5-0.6,0.9-1,1.3
			c-0.2,0.2-0.5,0.4-0.7,0.6c-1.1,1.2-2.1,2.5-3.2,3.7c-0.3,0.3-0.7,0.8-1.1,0.9c-0.5,0.1-1,0.4-1.4,0.7c-0.4,0.3-0.8,0.6-1.3,0.8
			c-1.1,0.4-2.2,0.9-3.3,1.6c0,0-0.1,0-0.1,0c-1,0.2-1.9,0.4-2.9,0.6c-1.1,0.3-2.3,0.6-3.3,1c-0.6,0.3-1.2,0.4-1.8,0.3
			c-0.3-0.1-0.7,0.3-1,0.3c-1.1-0.2-2.1,0.4-3.3,0.1c-0.8-0.3-1.7-0.5-2.5-0.6c-0.2,0-0.4-0.1-0.6-0.1c-0.2,0-0.4,0.1-0.6,0.1
			c0,0.2,0.1,0.4,0.2,0.6c0.2,0.3,0.5,0.5,0.8,0.7c0.7,0.2,1.2,0.8,2,0.6c0.2,0,0.5,0,0.7,0.1c0.9,0.2,1.8,0.3,2.7,0.3
			c0.9,0,1.8-0.3,2.7-0.2c1.1,0,2.2-0.2,3.3-0.6c0.2,0,0.3-0.1,0.4-0.2c0.2-0.1,0.4-0.1,0.6-0.1c0.2,0,0.5,0,0.7-0.1
			c1.4-0.4,2.8-0.9,4.1-1.4c0.8-0.4,1.8-0.3,2.3-1.2c0,0,0.1,0,0.2-0.1c0.3,0,0.6-0.1,0.8-0.2c0.7-0.4,1.3-1,2-1.4
			c0.5-0.3,0.9-0.6,1.3-1c1-1.1,2-2.2,3-3.3c0.7-0.8,1.4-1.5,2-2.3c1.3-1.7,2.3-3.6,3.1-5.6c0.2-0.4,0.3-1,0.5-1.4
			c0.5-1,0.7-2.1,0.7-3.2c0-1.5,0-3.1,0-4.7c0-0.4,0-0.8-0.1-1.1C73.8,42.7,73,41.7,72,41c-1.5-1.4-3.3-2.3-5.3-2.6
			c-0.8-0.1-1.7-0.1-2.5-0.1c-0.7,0-1.4,0.2-2.1,0.2c-0.9-0.1-1.8-0.2-2.7-0.3c-0.5-0.1-1-0.2-1.4-0.4c-0.5-0.2-1-0.5-1.6-0.7
			c-0.1,0-0.3-0.1-0.4-0.2c-0.1,0-0.2,0-0.3-0.1v-0.1c-0.3-0.2-0.3-0.5-0.1-1.2c0.1-0.6,0.1-1.1,0-1.7c0-0.3,0-0.5,0-0.8
			c0.1-0.5,0.4-1,0.8-1.4c0.4-0.4,0.8-0.8,1.1-1.3c0.6-0.6,1.3-1.2,1.9-1.8c0-0.1,0.1-0.1,0.1-0.2c0.3-0.3,0.5-0.5,0.7-0.8l0,0
			c0.2,0,0.4-0.2,0.5-0.3c0.7-0.4,0.9-1.5,1.8-1.7c0.1,0,0.2-0.1,0.2-0.2c0.2-0.4,0.4-0.4,0.8-0.5c0.1,0,0.2-0.1,0.3-0.1l-0.5,1.2
			c-0.3,0.5-0.5,1.1-0.8,1.7c-0.1,0.1-0.1,0.2-0.1,0.3c0,1,0,1.9,0,2.9c0,0.3,0,0.6,0,0.9c0,0.4,0.2,0.8,0.1,1.2
			c-0.1,0.8,0.3,1.5,1,1.9c0.6,0.3,1.1,0.7,1.8,0.3c0,0,0.2,0,0.2,0c0.7-0.2,1.4-0.4,2-0.7c0.6-0.4,1.1-0.8,1.5-1.3
			c0.7-0.5,1.3-1,1.9-1.5c0.7-0.8,1.3-1.6,1.8-2.5c0.5-0.7,1.1-1.4,1.6-2.2s1.2-1.3,1.6-2.1c0.1-0.2,0.8-0.4,0.8-0.3
			s0.1,0.2,0.2,0.3c0.1,0,0.2,0.1,0.3,0.1c0.2,0.2,0.3,0.5,0.3,0.8c0,0.1,0,0.2,0,0.3s0.1,0.2,0.1,0.3c0,0.5,0,0.9-0.2,1.4
			c0,0.4,0,0.8-0.1,1.2c-0.1,0.9,0.4,1.7,1.3,1.8c0,0,0,0,0.1,0C79.5,30.8,80.3,30.7,80.8,30.3z M64.6,22.4L64.6,22.4L64.6,22.4
			L64.6,22.4c-0.1,0.2-0.1,0.4-0.1,0.6c-0.5-0.7-1.2-1.1-2-1.3c-0.4-0.1-0.8-0.2-1.2-0.2c0.1-0.4,0.1-0.6,0.2-0.8s0-0.7,0.2-0.8
			c0.4-0.4,1-0.8,1.5-1c0.4-0.2,0.7-0.5,0.9-0.8c0.6-0.2,1.2-0.5,1.8-0.9l0.5-0.4l0.2-0.1l0.1,0.1l0.2-0.2l1-0.4v0.1v-0.1l0.3-0.1
			L64.6,22.4z"/>
		<path class="st0" d="M147.4,26.4c-0.1,0-0.3-0.1-0.4,0c-0.3,0.1-0.6,0.1-0.9,0.2c-0.6,0-1.2,0.5-1.9,0.2c-0.3-0.1-0.7-0.1-1,0
			c-0.8,0.1-1.6,0.3-2.4,0.4s-1.7,0.1-2.6,0.2c-0.3,0.1-0.6,0.2-0.9,0.4c-0.5,0-1,0-1.5,0c-0.1,0-0.3,0.1-0.4,0.1
			c-1.3-0.3-2.1,0.7-3.2,1.2c-0.2,0.1-0.3,0.3-0.5,0.5s-0.7,0.4-1,0.6s-0.3,0.4-0.5,0.5c-0.4,0.1-0.5,0.3-0.7,0.6
			c-0.4,0.6-0.8,0.7-1.3,0.4c0.2-0.5,0.4-1,0.7-1.5c0.4-0.5,0.9-1,1.3-1.5c0.5-0.7,0.9-1.5,1.3-2.3c0.3-0.6,0.2-1.5,0.9-2
			c0.1,0,0-0.2,0.1-0.3c0.1-0.3,0.2-0.5,0.3-0.8c0.2-0.6,0.9-1,0.9-1.7c0-0.1,0.1-0.1,0.2-0.2l1-0.8c0.5,0.6,1.4,0.6,2,0.1
			c0,0,0,0,0,0c0.2-0.2,0.5-0.3,0.8-0.4c0.1,0,0.2,0,0.3-0.1c0.5-0.4,0.9-0.9,1.2-1.4c0.3-0.8,0.5-1.7,0.5-2.6c0-1.4-1-2.6-2.3-2.9
			l0,0c-0.1,0-0.3,0-0.4,0l0,0c-0.2,0-0.5,0.1-0.6,0.3l-0.1,0.1l0,0c-0.3,0.2-0.5,0.4-0.8,0.6c-0.3,0.2-0.6,0.4-0.8,0.7
			c-0.4,0.6-0.7,1.2-1.1,1.8c-0.3,0.9-0.8,1.7-1.4,2.4c0,0.1-0.1,0.2-0.1,0.3c-0.4,0.9-1,1.6-1.4,2.5c-0.2,0.4-0.3,0.9-0.6,1.3
			c-0.8,1.2-1.5,2.5-2.3,3.7c-0.1,0.1-0.2,0.2-0.3,0.3c-0.3,0.4-0.6,0.7-0.8,1.1c-0.2,0.5-0.3,1-0.5,1.5c-0.3,0.7-0.6,1.4-0.8,2
			c-0.1,0.5-0.1,0.9,0,1.4c0.2,0.4,0.3,0.7,0.4,1.2c0.1,0.3,0.2,0.6,0.3,0.9c0.1,0.1,0.1,0.2,0.2,0.3c0.2,0.2,0.5,0.4,0.6,0.6
			c0,0.1,0.1,0.1,0.1,0.2c0.2,0.1,0.4,0.3,0.5,0.4c0.2,0.2,0.4,0.4,0.5,0.6c0.3-0.3,0.5-0.6,0.6-1c0.1-0.4,0.3-0.7,0.6-1.1
			c0.1-0.1,0.3-0.3,0.4-0.4c0.2-0.4,0.5-0.8,0.8-1.2c0.1-0.2,0.3-0.3,0.5-0.4c0.1-0.2,0.3-0.4,0.5-0.5c1.1-0.7,2.3-1.4,3.5-2.1
			c0.4-0.2,1-0.3,1.4-0.6c0.6-0.4,1.4-0.5,2-0.1c0.3,0.1,0.4,0.3,0.1,0.6s-0.4,0.6-0.7,0.9c-0.9,0.8-1.7,1.8-2.4,2.9
			c-0.6,1.1-1.3,2.2-2.1,3.2c-1.1,1.6-1.6,3.6-1.3,5.6c0.1,0.4-0.1,0.7-0.5,0.8c-0.5,0.1-0.6,0.4-0.9,0.7c-0.4,0.5-0.8,1-1.3,1.5
			c-0.6,0.6-1.4,1.1-2,1.8c-0.8,1.1-1.9,1.9-3.2,2.5c-0.1,0.1-0.2,0.1-0.3,0.2c-0.8,0.7-1.9,1.2-3,1.3c0-0.3-0.1-0.5-0.1-0.8
			s0-0.8,0-1.2c0-0.8,0-1.5,0.2-2.3c0.2-0.7,0.3-1.3-0.2-1.7c0-0.3-0.1-0.5-0.1-0.8c0-0.2-0.1-0.4-0.3-0.6c-0.2-0.1-0.4-0.2-0.6-0.3
			c-0.2-0.1-0.3-0.2-0.5-0.3l-0.3-0.1l-0.2-0.1c-0.3-0.1-0.4-0.1-0.5,0.1h-0.6c-0.3-0.2-0.7-0.2-1,0c-0.9,0.2-1.7,0.5-2.5,0.9
			c-1.6,0.9-3,2-4.2,3.4c-0.5,0.5-1,1-1.6,1.4c-0.5,0.4-1.2,0.5-1.4,1.2c-0.1,0.1-0.1,0.1-0.2,0.2c-0.5,0.3-1,0.6-1.4,1
			c-0.6,0.4-1.1,0.9-1.5,1.5c-0.4,0.4-0.6,0.9-0.7,1.4c0.6,0.4,1.3,0.4,1.9,0.1c0.6-0.3,1.2-0.6,1.7-0.9c0.1-0.1,0.2-0.2,0.3-0.3
			c0.6-0.6,1.3-1.1,1.9-1.7s1.4-0.5,1.7-1.3c0,0,0.1-0.1,0.2-0.1c0.4-0.2,0.9-0.3,1-0.9c0-0.1,0.2-0.2,0.3-0.3l3.7-2.7
			c0.2-0.1,0.4-0.4,0.6-0.4c0.4,0,0.6-0.2,0.8-0.4h0.5l0,0c0.5,0,0.5,0.3,0.5,0.7c0,1.5,0,3.1-0.1,4.6c-0.1,1,0.2,1.9,0.8,2.6
			c0.6,0.8,1.6,1.1,2.5,0.8c0.3-0.1,0.5-0.1,0.8-0.2c0.5-0.2,1-0.4,1.6-0.6c0.7-0.4,1.5-0.9,2.2-1.2c0.9-0.5,1.6-1.1,2.3-1.8
			c0.6-0.5,1.1-1.1,1.7-1.7c0.1-0.1,0.2-0.2,0.3-0.3c0.6-0.6,1.1-1.2,1.7-1.8c0.4-0.4,0.8-0.8,1.2-1.2c0.1,0.1,0.3,0.2,0.5,0.3
			c0.6,0.2,1.2,0.3,1.8,0.3c0.6-0.1,1.1-0.3,1.6-0.5c0.5-0.2,0.9-0.6,1.4-0.7c0.5,0,1-0.4,1.3-0.8c0.7-1.1,0.7-2.5,0.1-3.6
			c-0.3-0.4-0.6-0.7-1-1c-0.6-0.5-0.9-0.5-1.4,0c-0.4,0.2-0.8,0.4-1.2,0.6c-0.3,0.1-0.6,0.3-1,0.4c-0.3-0.1-0.2-0.3,0-0.7
			c0.5-0.7,0.9-1.4,1.3-2.1c0.3-0.7,0.5-1.6,1.3-2c0.3-0.5,0.7-1,1.1-1.5c0,0,0-0.1,0.1-0.1c0.1-0.3,0.3-0.6,0.5-0.9
			c0.3-0.3,0.6-0.5,0.9-0.8c0.3-0.4,0.6-0.7,1-1c0.1-0.1,0.2-0.2,0.3-0.2c0.2-0.2,0.5-0.3,0.7-0.5c1.7-0.9,3.4-1.6,5.3-2v0
			c0.3-0.4,0.8-0.7,0.8-1.1C148.5,27.2,148.1,26.6,147.4,26.4z"/>
		<path class="st0" d="M97.5,72.5c-0.9,0.3-1.8,0.7-2.7,1.1c-0.4,0.1-0.7,0.2-1.1,0.3c-0.6,0.2-1.2,0.4-1.9,0.6
			c-0.6,0.1-1.3,0-2,0.2c-1.3,0.1-2.5,0-3.7-0.4c-0.7-0.2-1.4-0.6-2-1c-1-0.6-1.7-1.4-2.1-2.5c-0.3-0.9-0.6-1.8-0.9-2.8
			c-0.1-0.3-0.2-0.7-0.3-1c-0.2-1.1-0.2-2.3,0-3.4c0-0.6,0-1.3,0-1.9c0-0.7,0.2-1.4,0.1-2c0-1,0.2-2.1,0.5-3.1
			c0.1-0.5,0.3-0.9,0.6-1.3c0.6-0.8,0.5-1.9,1.3-2.5c0.3-0.3,0.3-0.9,0.4-1.4c0.1-0.2,0.2-0.4,0.3-0.7c0.4-0.5,0.7-1,1-1.5
			c0.4-1,0.6-2,0.9-3c0.1-0.2,0.2-0.5,0.3-0.7c0.3-0.5,0.6-1.1,0.9-1.6c0.2-0.4,0.3-0.8,0.4-1.2c0.2-0.5,0.5-1,0.8-1.5
			c0.4-0.6,1.1-1.1,1.2-1.9c0-0.1,0.1-0.2,0.2-0.3c0.4-0.5,0.8-1,1.1-1.5c0.9-1.6,2.1-3.1,3.5-4.3c0.2-0.2,0.4-0.5,0.6-0.7
			c0.2-0.2,0.4-0.4,0.6-0.6c0.4-0.6,0.9-1.2,1.4-1.7c0.9-0.7,1.7-1.6,2.4-2.6c0.1-0.1,0.1-0.2,0.2-0.3c1-0.8,2-1.6,3-2.4
			c0.3-0.2,0.6-0.3,0.9-0.5c0.5-0.4,1-0.9,1.5-1.3c0.8-0.6,1.8-1.1,2.6-1.7s1.6-0.9,2.4-1.4c1.1-0.9,2.2-1.6,3.5-2.2
			c1.1-0.5,2.2-1.2,3.2-1.9c0.2-0.2,0.4-0.3,0.7-0.5c1.6-0.8,3.1-1.5,4.7-2.2c1.2-0.6,2.5-1.1,3.7-1.6c0,0,0.1,0,0.1,0
			c0.5,0.3,0.8-0.1,1.2-0.3c0.6-0.2,1.2-0.3,1.8-0.4c0.2,0,0.3-0.1,0.5-0.2c0.2-0.2,0.3-0.4,0.5-0.6l0.1,0.2
			c0.2-0.1,0.4-0.1,0.6-0.3c0.4-0.4,0.9-0.7,1.4-1c0.5-0.3,0.9-0.5,1.1-1c0.3,0,0.6,0.1,0.7,0c0.5-0.4,0.6-1.1,0.2-1.6
			C133.5,6,133,5.9,132.9,6c-0.5,0.4-1,0.6-1.6,0.9c-1.7,0.8-3.6,1.5-5.3,2.2c-0.6,0.2-1.1,0.4-1.7,0.6c-0.7,0.3-1.4,0.5-2.1,0.8
			c-0.4,0.1-0.7,0.4-1,0.5c-0.8,0.4-1.7,0.7-2.5,1.1c-0.5,0.2-1,0.4-1.5,0.7c-0.3,0.1-0.6,0.3-1,0.4c-1.4,0.6-2.4,1.8-3.8,2.4
			c-1,0.5-1.9,1.2-2.9,1.8c-0.7,0.5-1.5,1-2.3,1.4c-0.6,0.3-1.2,0.8-1.8,1.3c-0.8,0.6-1.6,1-2.4,1.6s-1.7,1-2.5,1.6
			c-0.5,0.4-1,0.9-1.5,1.4c-1.1,1.1-2.3,2.3-3.4,3.4c-0.3,0.3-0.6,0.7-1,1c-0.6,0.6-1.2,1.3-1.8,2s-1.1,1.5-1.7,2.2
			c-0.4,0.5-1,0.8-1.3,1.3c-0.2,0.4-0.5,0.8-0.9,1.1c-0.1,0.1-0.2,0.2-0.3,0.3c-0.5,0.9-1,1.7-1.5,2.6s-1,1.7-1.5,2.5
			c-0.2,0.4-0.2,0.9-0.5,1.1c-0.7,0.5-0.7,1.3-1,2s-0.6,1.6-0.9,2.4c-0.1,0.3-0.3,0.6-0.5,0.9c-0.3,0.8-0.7,1.6-1,2.4
			c-0.2,0.4-0.3,0.9-0.5,1.3c-0.6,1.1-1.2,2.3-1.8,3.4c-0.2,0.4-0.4,0.9-0.6,1.3c-0.2,0.8-0.4,1.7-0.4,2.5c-0.3,1.3-0.3,2.6-0.1,3.9
			c0,0.3,0,0.6-0.1,0.8c-0.2,0.6-0.3,1.2-0.3,1.8c-0.1,1.1,0.1,2.2,0.6,3.2c0.5,1.2,0.8,2.5,1.2,3.7c0.5,1.2,1.3,2.1,2.3,2.8
			c0.7,0.6,1.5,1,2.4,1.4c0.6,0.4,1.3,0.6,2,0.6c0.8-0.2,1.7-0.1,2.5-0.1s1.7-0.2,2.6-0.3c0.5-0.1,0.9-0.2,1.4-0.4
			c0.9-0.4,1.7-1.1,2.8-1.2c0.1,0,0.1-0.1,0.2-0.1c0.3-0.4,0.7-0.6,1.1-0.8c0.5-0.2,1-0.6,1.5-1c0.1-0.1,0.1-0.3,0.2-0.6
			c-0.2,0-0.4,0-0.5,0C98,72.3,97.7,72.4,97.5,72.5z"/>
		<path class="st0" d="M101.9,37.2c0.2,1,0.5,1.9,0.8,2.9c0.3,0.5,0.8,0.8,1.4,0.7c0.7-0.2,1.4-0.3,2.1-0.5c1.1-0.2,2-0.7,2.9-1.4
			c0.3-0.4,0.7-0.7,1.1-1c0.4-0.2,0.7-0.5,1.1-0.9c0.3-0.4,0.9-0.6,1.4-0.6c1.1,0.1,2.2-0.5,2.8-1.5c0.2-0.3,0.3-0.6,0.6-0.9
			c0.6-0.7,0.6-1.8,0-2.5c-0.5-0.5-1-1-1.4-1.5c-0.4-0.5-1.2-0.6-1.7-0.2c-0.1,0.1-0.2,0.2-0.3,0.4c-0.2,0.2-0.4,0.5-0.7,0.6
			c-0.2,0.2-0.4,0.3-0.6,0.5c-0.4,0.4-0.8,0.8-1,1.3c-0.4,0.5-0.5,1.3-0.2,1.9c0.1,0.2,0.1,0.7,0,0.8c-1.4,1-2.9,2-4.4,3
			c-0.4,0.3-1.2,0.2-1.2-0.1c0-0.7,0.1-1.4,0.2-2.1c0-0.2,0.1-0.4,0.1-0.6c0.1-0.5,0.3-0.9,0.5-1.3l0,0c0.1-0.1,0.2-0.2,0.2-0.4
			c0.1-0.2,0.1-0.3,0.2-0.5h0.1c0.1-0.3,0.3-0.5,0.3-0.7c0.1-0.3,0.1-0.6,0.1-0.9v-0.1l0,0l0,0c0-0.2,0-0.5,0.1-0.7
			c0-0.1,0-0.3,0.1-0.4c0.2-0.6,0.3-1.3,0.2-2c0-0.2-0.1-0.5-0.3-0.6c-0.7-0.3-1.3-1-2.2-0.6c-0.3,0.1-0.7,0.2-1,0.3
			c-0.8,0-1.4,0.4-1.8,1.1c-0.3,0.5-0.6,0.9-0.9,1.4c-0.1,0.2-0.2,0.5-0.3,0.8c-0.3,0.6-0.7,1.3-1.1,1.9c-0.2,0.3-0.4,0.5-0.4,0.9
			c0,0.2-0.2,0.5-0.3,0.7L98,35l0.2,0.1c0.2-0.2,0.3-0.4,0.5-0.5c0.2-0.2,0.3-0.3,0.5-0.5c0.2-0.1,0.4-0.3,0.6-0.4
			c0.6-0.5,1-1.2,1.3-1.9c0-0.1,0.1-0.1,0.1-0.1c0.6-0.1,0.7-0.6,0.9-0.9s0.3-0.7,0.6-0.9c0.5-0.3,1-0.5,1.6-0.7
			c0.2,0.5,0.1,1-0.2,1.4c-0.2,0.3-0.4,0.5-0.6,0.8c-0.3,0.6-0.6,1.2-0.8,1.8c-0.2,0.8-0.8,1.5-0.4,2.4c0.1,0.2-0.1,0.4-0.1,0.6
			C101.9,36.5,101.9,36.8,101.9,37.2z"/>
		<path class="st0" d="M124.8,17.8c-0.1-0.5-0.5-0.7-1-0.7c-0.6,0-1.2,0.4-1.4,1.1c-0.4,1.3-0.7,2.7-1,4c0,0.1,0,0.1,0,0.2l0,0
			c-0.1,0.3-0.2,0.7-0.2,1c-0.1,0.1-0.1,0.2-0.2,0.4c-0.1,0.7-0.2,1.3-0.4,2c-0.2,1.2-0.5,2.4-0.8,3.6c-0.3,1.8-0.5,3.6-0.8,5.3
			c-0.1,0.7-0.2,1.3-0.3,2c-0.3,1.2-0.7,2.3-1,3.5c0,0.2,0.1,0.4,0.2,0.6c0.1,0.1,0.3,0.1,0.4,0c1.2-0.8,2.1-1.9,2.6-3.2
			c0.1-0.3,0.2-0.7,0.3-1c0.3-0.9,0.6-1.7,0.9-2.6c0.1-0.3,0-0.6,0.1-0.9c0.2-0.8,0.5-1.6,0.6-2.3c0.3-1.3,0.4-2.5,0.7-3.8
			c0.4-1.7,0.7-3.4,0.7-5.1c-0.1-0.8,0-1.7,0.3-2.4C124.9,18.9,124.9,18.3,124.8,17.8z"/>
		<path class="st0" d="M74.9,66.1c-0.1-0.2-0.2-0.3-0.2-0.5c-0.2-0.7-0.4-1.4-0.6-2.2s-0.4-1.3-0.5-2c-0.1,0.1-0.2,0.1-0.3,0.1
			c-0.5,0-1,0.4-1,0.9c0,0,0,0,0,0c0.1,0.9,0.2,1.9,0.3,2.8c0.1,0.4,0.2,0.8,0.3,1.1c-1.1,0.1-2.1,0.1-3.1,0.2
			c-0.7,0-1.4,0.2-1.9,0.6c-0.3,0.3-0.6,0.5-1,0.6c-0.8,0.1-1.2,0.8-1.9,1.1C64.3,69,64,69.6,63.6,70s-0.7,0.5-0.8,0.9
			c-0.4,0.7-1,1.2-1.7,1.6c-0.1,0.1-0.2,0.2-0.3,0.3l-0.1,0.1c-0.2,0.1-0.5,0.3-0.7,0.4l-0.1-0.1c-0.1,0-0.3,0.1-0.4,0.1
			c-0.4,0.2-0.8,0.4-1.2,0.6c-0.3,0.2-0.7,0.4-1,0.5c-1,0.4-2.1,0.7-3.2,1c-0.5,0.2-0.9,0.3-1.3-0.3c-0.1-0.1-0.3-0.2-0.5-0.3
			c-0.1,0.3-0.3,0.6-0.2,0.8c0.1,0.4,0.3,0.9,0.6,1.2c0.4,0.3,0.9,0.5,1.3,0.6c0.2,0,0.3,0,0.5,0c1.1-0.3,2.2-0.6,3.3-1
			c0.4-0.1,0.6-0.5,1-0.6c0.7-0.3,1.4-0.4,2.1-0.7c0.4-0.2,0.7-0.4,1-0.7c0.9-0.6,1.7-1.3,2.4-2.1c0.7-0.8,1.1-1.8,2.2-2.3
			c0.7-0.3,1.3-1,2-1.3c1.2-0.5,2.4-0.9,3.7-1.2c0.5-0.1,1,0.2,1.2,0.7c0.1,0.2,0.1,0.3,0.2,0.5c0.3,0.4,0.8,0.6,1.3,0.4
			c0.4-0.4,0.7-0.9,0.7-1.4C75.4,67.2,75.2,66.6,74.9,66.1z"/>
		<path class="st0" d="M42.3,13.6c0.8,0.3,1.6,0.5,2.5,0.4c0.9-0.1,1.7-0.2,2.5-0.5c0.4-0.1,0.7-0.3,1.1-0.5
			c0.1-0.1,0.2-0.3,0.3-0.4c0.1-0.1,0.2-0.1,0.2-0.2h-0.6l0.9-0.4c-0.5-0.2-0.9-0.3-1.2-0.4c-0.6-0.3-1.4-0.3-2,0
			c-0.4,0.2-0.9,0.3-1.3,0.3c-0.6,0.1-1.1-0.2-1.2-0.8c0-0.1,0-0.1,0-0.2c0,0,0-0.1,0-0.1c-0.2-0.5-0.1-1.1,0.2-1.6
			c0.4-0.7,1-1.3,1.7-1.8l0.6-0.4C46,7,46.1,6.9,46.2,6.7c0.1,0,0.3,0.1,0.4,0l0.3-0.2c0.2-0.1,0.3-0.2,0.5-0.3
			c0.1-0.1,0.3-0.2,0.4-0.3c0.4-0.4,0.9-0.6,1.4-0.4c0.4-0.1,0.7-0.2,1.1-0.2c0.1-0.2,0-0.4-0.3-0.6c-0.5-0.3-1-0.6-1.5-0.9
			c-0.2-0.1-0.4-0.1-0.6,0c-0.5,0.2-1,0.4-1.5,0.6c-0.2,0.1-0.3,0.2-0.5,0.3c-0.5,0.4-1,0.8-1.4,1.3c-0.7,0.8-1.4,1.5-2.1,2.3
			c-0.4,0.5-0.7,1-0.9,1.6c-0.1,0.3,0,1.3-0.1,1.6C41,12.4,41.4,13.3,42.3,13.6C42.3,13.6,42.3,13.6,42.3,13.6z"/>
		<path class="st0" d="M105.5,48.3c0.1,0.1-0.2,0.7,0.4,0.5c0-0.4,0-0.8,0-1.2c0-0.5-0.3-1-0.8-1.2c-0.8-0.2-1.6-0.1-2.4,0.1
			c-0.7,0.2-1.4,0.5-2.1,0.8c-0.9,0.3-1.7,0.9-2.4,1.6c-0.7,0.8-1.3,1.5-2,2.3c-0.4,0.5-1.1,0.8-1.4,1.4c-0.5,0.9-1.3,1.3-2.1,1.8
			c-0.3,0.3-0.3,0.5-0.2,0.7c0,0,0.1,0,0.1,0h0.1c0.2-0.2,0.4-0.3,0.7-0.1L94,55l0.5-0.2c0.3-0.1,0.6-0.3,0.9-0.5
			c0.4-0.3,0.8-0.5,1.2-0.7c0.2-0.2,0.4-0.3,0.6-0.5c0.1-0.1,0.1-0.2,0.1-0.3c0,0,0.1,0,0.1,0l0.7-0.6l0,0l0.6-0.6
			c0.3-0.3,0.6-0.6,1-0.9l0,0c0.3-0.3,0.5-0.6,0.8-0.8c0.3-0.1,0.6-0.3,0.9-0.3c0.5-0.2,1-0.5,1.5-0.6
			C103.9,48.6,104.7,48.5,105.5,48.3z"/>
		<path class="st0" d="M78.6,39.9L78.6,39.9c0.3,0,0.6,0,0.9-0.1c0.2,0,0.3-0.1,0.5-0.2l0,0c0.3-0.2,0.6-0.4,0.8-0.6
			c0.4,0,0.6-0.2,0.8-0.5c0.1-0.1,0.2-0.2,0.3-0.2c0.3-0.1,0.5-0.3,0.8-0.4l0,0c0.2-0.1,0.4-0.2,0.6-0.4c0.1,0,0.1-0.1,0.1-0.2
			c0.7-0.5,1.3-1,2-1.6c1.1-0.8,1.9-1.8,2.6-3c0.2-0.3,0.3-0.7,0.5-1c0.7-1.1,1.4-2.2,2-3.3s1.1-2.2,1.6-3.4c0-0.1,0-0.2,0.1-0.3
			c0.1-0.7,0.4-1.4,0.7-2.1c0.3-0.5,0.4-1,0.4-1.5c0-0.5,0.2-1,0.6-1.5c1.1-1,1.7-2.5,1.6-3.9c0-0.8-0.6-1.2-1.2-1.6
			c-0.2-0.1-0.5,0-0.8,0.1c-0.1,0-0.2,0-0.3,0c-0.3,0.1-0.6,0.2-0.8,0.4c-0.4,0.7-0.7,1.4-1,2.1c-0.2,0.6-0.2,1.3-0.1,2
			c0.1,0.4,0.1,0.7,0,1.1c-0.2,0.7-0.5,1.3-0.8,2c-0.2,0.4-0.4,0.9-0.4,1.4c0,0.7-0.2,1.4-0.5,2c-0.3,0.6-0.5,1.3-0.8,1.9
			c-0.6,1.1-1.2,2.1-1.7,3.2c-0.1,0.2-0.2,0.4-0.3,0.5c-0.4,0.5-0.8,1.1-1.1,1.6c-0.5,0.9-1.1,1.7-1.9,2.4c-0.5,0.6-1,1.1-1.6,1.5
			C81.4,37,81,37.8,80.2,38c-0.1,0-0.2,0.3-0.3,0.4s-0.4,0.6-0.8,0.7l-0.4,0.2c0,0-0.1,0-0.1,0c-0.2,0-0.3,0.1-0.3,0.3
			c0,0.1,0,0.1,0,0.1c-0.1,0.2-0.1,0.4-0.1,0.7L78.6,39.9z"/>
		<path class="st0" d="M123.3,3.6L123.3,3.6c0.5,0.7,1.4,0.8,2.1,0.4c0.4-0.3,0.9-0.6,1.3-1c0-0.2,0-0.4,0.1-0.7
			c0.3-0.9-0.3-1.9-1.2-2.1c0,0,0,0-0.1,0c-0.3-0.1-0.7-0.2-1-0.2c-0.6,0.2-1.2,0.5-1.8,0.8c-0.1,0.1-0.1,0.3-0.2,0.5s0,0.3,0,0.4
			c-0.1,0.2-0.1,0.4,0,0.6c0,0.2-0.1,0.3-0.1,0.5C122.5,3.2,122.8,3.6,123.3,3.6z M123.5,2.9L123.5,2.9L123.5,2.9z M123.2,2.8
			L123.2,2.8C123.2,2.8,123.2,2.8,123.2,2.8z"/>
		<path class="st0" d="M56.8,4.6c0.1,0.2,0.2,0.4,0.3,0.6c0.1,0.1,0.1,0.1,0.2,0.2l0.1,0.1c0,0.1,0,0.1,0.1,0.2
			C58,6.3,58.9,6.5,59.6,6c0.4-0.3,0.9-0.6,1.3-1c0-0.2,0.1-0.5,0.1-0.7c0.2-0.9-0.3-1.9-1.3-2.1c0,0,0,0,0,0
			c-0.3-0.1-0.7-0.2-1-0.2c-0.6,0.2-1.2,0.5-1.8,0.8c-0.1,0-0.1,0.3-0.2,0.5s0,0.3,0,0.4c0,0.2,0,0.4,0,0.6
			C56.7,4.4,56.7,4.5,56.8,4.6z"/>
	</g>
</g>
</svg>
